<?xml version="1.0" encoding="UTF-8" standalone="no"?>
<svg
   xmlns:dc="http://purl.org/dc/elements/1.1/"
   xmlns:cc="http://creativecommons.org/ns#"
   xmlns:rdf="http://www.w3.org/1999/02/22-rdf-syntax-ns#"
   xmlns:svg="http://www.w3.org/2000/svg"
   xmlns="http://www.w3.org/2000/svg"
   xmlns:sodipodi="http://sodipodi.sourceforge.net/DTD/sodipodi-0.dtd"
   xmlns:inkscape="http://www.inkscape.org/namespaces/inkscape"
   version="1.2"
   width="536.62799"
   height="147.05104"
   viewBox="0 0 536.62799 147.05104"
   stroke-linecap="butt"
   stroke-linejoin="round"
   id="svg1279"
   sodipodi:docname="dataviz-key.svg"
   inkscape:version="1.0.2 (e86c8708, 2021-01-15)">
  <text
     y="123.6236"
     x="531.91187"
     font-family="sans-serif"
     font-size="13px"
     text-anchor="end"
     fill="#555555"
     id="text1276"
     style="font-style:normal;font-variant:normal;font-weight:normal;font-stretch:normal;font-size:13.3333px;font-family:sans-serif;-inkscape-font-specification:'sans-serif, Normal';font-variant-ligatures:normal;font-variant-caps:normal;font-variant-numeric:normal;font-variant-east-asian:normal;text-anchor:end;fill:#555555"><tspan
       sodipodi:role="line"
       id="tspan1396"
       x="531.91187"
       y="123.6236">76.6%</tspan></text>
  <metadata
     id="metadata1285">
    <rdf:RDF>
      <cc:Work
         rdf:about="">
        <dc:format>image/svg+xml</dc:format>
        <dc:type
           rdf:resource="http://purl.org/dc/dcmitype/StillImage" />
        <dc:title></dc:title>
      </cc:Work>
    </rdf:RDF>
  </metadata>
  <defs
     id="defs1283" />
  <sodipodi:namedview
     pagecolor="#ffffff"
     bordercolor="#666666"
     borderopacity="1"
     objecttolerance="10"
     gridtolerance="10"
     guidetolerance="10"
     inkscape:pageopacity="0"
     inkscape:pageshadow="2"
     inkscape:window-width="1920"
     inkscape:window-height="1080"
     id="namedview1281"
     showgrid="false"
     fit-margin-top="5"
     fit-margin-right="5"
     fit-margin-bottom="5"
     fit-margin-left="5"
     inkscape:zoom="1.236"
     inkscape:cx="264.30341"
     inkscape:cy="64.5"
     inkscape:window-x="0"
     inkscape:window-y="0"
     inkscape:window-maximized="0"
     inkscape:current-layer="svg1279" />
  <style
     id="style1069">
  path {shape-rendering: crispEdges;}
</style>
  <path
     d="m 15.303408,94.64 v -0.57 h 4.98 v 0.57 z"
     fill="#dddddd"
     id="path1071" />
  <path
     d="m 20.283408,94.64 v -0.57 h 4.98 v 0.57 z"
     fill="#dddddd"
     id="path1073" />
  <path
     d="m 35.223408,94.64 v -0.57 h 4.98 v 0.57 z"
     fill="#dddddd"
     id="path1075" />
  <path
     d="m 40.203408,94.64 v -0.57 h 4.98 v 0.57 z"
     fill="#dddddd"
     id="path1077" />
  <path
     d="m 45.183408,94.64 v -0.57 h 4.98 v 0.57 z"
     fill="#dddddd"
     id="path1079" />
  <path
     d="m 60.123408,94.64 v -2.87 h 4.98 v 2.87 z"
     fill="#dddddd"
     id="path1081" />
  <path
     d="m 65.103408,94.64 v -8.62 h 4.98 v 8.62 z"
     fill="#dddddd"
     id="path1083" />
  <path
     d="M 70.083408,94.64 V 75.68 h 4.98 v 18.96 z"
     fill="#dddddd"
     id="path1085" />
  <path
     d="M 75.063408,94.64 V 74.53 h 4.98 v 20.11 z"
     fill="#dddddd"
     id="path1087" />
  <path
     d="M 80.043408,94.64 V 67.63 h 4.98 v 27.01 z"
     fill="#dddddd"
     id="path1089" />
  <path
     d="M 85.023408,94.64 V 49.25 h 4.98 v 45.39 z"
     fill="#dddddd"
     id="path1091" />
  <path
     d="M 90.003408,94.64 V 45.22 h 4.98 v 49.42 z"
     fill="#dddddd"
     id="path1093" />
  <path
     d="M 94.983408,94.64 V 35.45 h 4.98 v 59.19 z"
     fill="#dddddd"
     id="path1095" />
  <path
     d="M 99.963408,94.64 V 15.92 h 4.980002 v 78.72 z"
     fill="#dddddd"
     id="path1097" />
  <path
     d="M 104.94341,94.64 V 11.32 h 4.98 v 83.32 z"
     fill="#dddddd"
     id="path1099" />
  <path
     d="M 109.92341,94.64 V 16.49 h 4.98 v 78.15 z"
     fill="#dddddd"
     id="path1101" />
  <path
     d="M 114.90341,94.64 V 6.15 h 4.98 v 88.49 z"
     fill="#dddddd"
     id="path1103" />
  <path
     d="M 119.88341,94.64 V 17.07 h 4.98 v 77.57 z"
     fill="#dddddd"
     id="path1105" />
  <path
     d="M 124.86341,94.64 V 5 h 4.98 v 89.64 z"
     fill="#dddddd"
     id="path1107" />
  <path
     d="M 129.84341,94.64 V 6.15 h 4.98 v 88.49 z"
     fill="#dddddd"
     id="path1109" />
  <path
     d="M 134.82341,94.64 V 19.37 h 4.98 v 75.27 z"
     fill="#dddddd"
     id="path1111" />
  <path
     d="M 139.80341,94.64 V 18.22 h 4.98 v 76.42 z"
     fill="#dddddd"
     id="path1113" />
  <path
     d="M 144.78341,94.64 V 26.26 h 4.98 v 68.38 z"
     fill="#dddddd"
     id="path1115" />
  <path
     d="M 149.76341,94.64 V 25.11 h 4.98 v 69.53 z"
     fill="#dddddd"
     id="path1117" />
  <path
     d="M 154.74341,94.64 V 31.43 h 4.98 v 63.21 z"
     fill="#dddddd"
     id="path1119" />
  <path
     d="M 159.72341,94.64 V 36.03 h 4.98 v 58.61 z"
     fill="#dddddd"
     id="path1121" />
  <path
     d="M 164.70341,94.64 V 39.48 h 4.98 v 55.16 z"
     fill="#dddddd"
     id="path1123" />
  <path
     d="M 169.68341,94.64 V 49.82 h 4.98 v 44.82 z"
     fill="#dddddd"
     id="path1125" />
  <path
     d="M 174.66341,94.64 V 48.1 h 4.98 v 46.54 z"
     fill="#dddddd"
     id="path1127" />
  <path
     d="M 179.64341,94.64 V 65.33 h 4.98 v 29.31 z"
     fill="#dddddd"
     id="path1129" />
  <path
     d="m 184.62341,94.64 v -31.6 h 4.98 v 31.6 z"
     fill="#dddddd"
     id="path1131" />
  <path
     d="M 189.60341,94.64 V 69.36 h 4.98 v 25.28 z"
     fill="#dddddd"
     id="path1133" />
  <path
     d="M 194.58341,94.64 V 65.33 h 4.98 v 29.31 z"
     fill="#dddddd"
     id="path1135" />
  <path
     d="M 199.56341,94.64 V 65.91 h 4.98 v 28.73 z"
     fill="#dddddd"
     id="path1137" />
  <path
     d="M 204.54341,94.64 V 72.23 h 4.98 v 22.41 z"
     fill="#dddddd"
     id="path1139" />
  <path
     d="M 209.52341,94.64 V 65.33 h 4.98 v 29.31 z"
     fill="#dddddd"
     id="path1141" />
  <path
     d="M 214.50341,94.64 V 72.8 h 4.98 v 21.84 z"
     fill="#dddddd"
     id="path1143" />
  <path
     d="M 219.48341,94.64 V 71.08 h 4.98 v 23.56 z"
     fill="#dddddd"
     id="path1145" />
  <path
     d="M 224.46341,94.64 V 76.25 h 4.98 v 18.39 z"
     fill="#dddddd"
     id="path1147" />
  <path
     d="M 229.44341,94.64 V 73.95 h 4.98 v 20.69 z"
     fill="#dddddd"
     id="path1149" />
  <path
     d="M 234.42341,94.64 V 82.57 h 4.98 v 12.07 z"
     fill="#dddddd"
     id="path1151" />
  <path
     d="M 239.40341,94.64 V 77.98 h 4.98 v 16.66 z"
     fill="#dddddd"
     id="path1153" />
  <path
     d="M 244.38341,94.64 V 74.53 h 4.98 v 20.11 z"
     fill="#dddddd"
     id="path1155" />
  <path
     d="m 249.36341,94.64 v -6.9 h 4.98 v 6.9 z"
     fill="#dddddd"
     id="path1157" />
  <path
     d="m 254.34341,94.64 v -9.77 h 4.98 v 9.77 z"
     fill="#dddddd"
     id="path1159" />
  <path
     d="m 259.32341,94.64 v -6.9 h 4.98 v 6.9 z"
     fill="#dddddd"
     id="path1161" />
  <path
     d="m 264.30341,94.64 v -6.9 h 4.98 v 6.9 z"
     fill="#dddddd"
     id="path1163" />
  <path
     d="M 269.28341,94.64 V 83.15 h 4.98 v 11.49 z"
     fill="#dddddd"
     id="path1165" />
  <path
     d="m 274.26341,94.64 v -8.62 h 4.98 v 8.62 z"
     fill="#dddddd"
     id="path1167" />
  <path
     d="m 279.24341,94.64 v -8.62 h 4.98 v 8.62 z"
     fill="#dddddd"
     id="path1169" />
  <path
     d="m 284.22341,94.64 v -6.9 h 4.98 v 6.9 z"
     fill="#dddddd"
     id="path1171" />
  <path
     d="m 289.20341,94.64 v -5.17 h 4.98 v 5.17 z"
     fill="#dddddd"
     id="path1173" />
  <path
     d="m 294.18341,94.64 v -4.6 h 4.98 v 4.6 z"
     fill="#dddddd"
     id="path1175" />
  <path
     d="m 299.16341,94.64 v -5.75 h 4.98 v 5.75 z"
     fill="#dddddd"
     id="path1177" />
  <path
     d="m 304.14341,94.64 v -6.9 h 4.98 v 6.9 z"
     fill="#dddddd"
     id="path1179" />
  <path
     d="m 309.12341,94.64 v -5.75 h 4.98 v 5.75 z"
     fill="#dddddd"
     id="path1181" />
  <path
     d="m 314.10341,94.64 v -2.87 h 4.98 v 2.87 z"
     fill="#dddddd"
     id="path1183" />
  <path
     d="m 319.08341,94.64 v -4.02 h 4.98 v 4.02 z"
     fill="#dddddd"
     id="path1185" />
  <path
     d="m 324.06341,94.64 v -1.72 h 4.98 v 1.72 z"
     fill="#dddddd"
     id="path1187" />
  <path
     d="m 329.04341,94.64 v -5.75 h 4.98 v 5.75 z"
     fill="#dddddd"
     id="path1189" />
  <path
     d="m 334.02341,94.64 v -5.17 h 4.98 v 5.17 z"
     fill="#dddddd"
     id="path1191" />
  <path
     d="m 339.00341,94.64 v -0.57 h 4.98 v 0.57 z"
     fill="#dddddd"
     id="path1193" />
  <path
     d="m 343.98341,94.64 v -2.3 h 4.98 v 2.3 z"
     fill="#dddddd"
     id="path1195" />
  <path
     d="m 348.96341,94.64 v -3.45 h 4.98 v 3.45 z"
     fill="#dddddd"
     id="path1197" />
  <path
     d="m 353.94341,94.64 v -4.02 h 4.98 v 4.02 z"
     fill="#dddddd"
     id="path1199" />
  <path
     d="m 358.92341,94.64 v -2.3 h 4.98 v 2.3 z"
     fill="#dddddd"
     id="path1201" />
  <path
     d="m 363.90341,94.64 v -1.72 h 4.98 v 1.72 z"
     fill="#dddddd"
     id="path1203" />
  <path
     d="m 368.88341,94.64 v -1.15 h 4.98 v 1.15 z"
     fill="#dddddd"
     id="path1205" />
  <path
     d="m 373.86341,94.64 v -2.3 h 4.98 v 2.3 z"
     fill="#dddddd"
     id="path1207" />
  <path
     d="m 378.84341,94.64 v -1.15 h 4.98 v 1.15 z"
     fill="#dddddd"
     id="path1209" />
  <path
     d="m 383.82341,94.64 v -1.15 h 4.98 v 1.15 z"
     fill="#dddddd"
     id="path1211" />
  <path
     d="m 388.80341,94.64 v -1.15 h 4.98 v 1.15 z"
     fill="#dddddd"
     id="path1213" />
  <path
     d="m 393.78341,94.64 v -2.3 h 4.98 v 2.3 z"
     fill="#dddddd"
     id="path1215" />
  <path
     d="m 398.76341,94.64 v -0.57 h 4.98 v 0.57 z"
     fill="#dddddd"
     id="path1217" />
  <path
     d="m 403.74341,94.64 v -2.3 h 4.98 v 2.3 z"
     fill="#dddddd"
     id="path1219" />
  <path
     d="m 408.72341,94.64 v -0.57 h 4.98 v 0.57 z"
     fill="#dddddd"
     id="path1221" />
  <path
     d="m 413.70341,94.64 v -1.15 h 4.98 v 1.15 z"
     fill="#dddddd"
     id="path1223" />
  <path
     d="m 418.68341,94.64 v -0.57 h 4.98 v 0.57 z"
     fill="#dddddd"
     id="path1225" />
  <path
     d="m 443.58341,94.64 v -0.57 h 4.98 v 0.57 z"
     fill="#dddddd"
     id="path1227" />
  <path
     d="m 498.36341,94.64 v -0.57 h 4.98 v 0.57 z"
     fill="#dddddd"
     id="path1229" />
  <path
     d="m 508.32341,94.64 v -0.57 h 4.98 v 0.57 z"
     fill="#dddddd"
     id="path1231" />
  <path
     d="m 15.303408,104.6 v -9.96 h 89.200002 v 9.96 z"
     fill="#f0f9e8"
     id="path1234" />
  <path
     d="m 104.50341,104.6 v -9.96 h 18.61 v 9.96 z"
     fill="#ccebc5"
     id="path1236" />
  <path
     d="m 123.11341,104.6 v -9.96 h 17.97 v 9.96 z"
     fill="#a8ddb5"
     id="path1238" />
  <path
     d="m 141.08341,104.6 v -9.96 h 23.75 v 9.96 z"
     fill="#7bccc4"
     id="path1240" />
  <path
     d="m 164.83341,104.6 v -9.96 h 44.28 v 9.96 z"
     fill="#43a2ca"
     id="path1242" />
  <path
     d="m 209.11341,104.6 v -9.96 h 304.19 v 9.96 z"
     fill="#0868ac"
     id="path1244" />
  <g
     id="layer10"
     fill="none"
     stroke="#000000"
     stroke-width="1"
     transform="translate(14.303408,4)">
    <path
       d="m 1,90.64 v 15.94"
       stroke="rgba(0,0,0,0.3)"
       id="path1249" />
    <path
       d="m 90.2,90.64 v 15.94"
       stroke="rgba(0,0,0,0.3)"
       id="path1251" />
    <path
       d="m 108.81,90.64 v 15.94"
       stroke="rgba(0,0,0,0.3)"
       id="path1253" />
    <path
       d="m 126.78,90.64 v 15.94"
       stroke="rgba(0,0,0,0.3)"
       id="path1255" />
    <path
       d="m 150.53,90.64 v 15.94"
       stroke="rgba(0,0,0,0.3)"
       id="path1257" />
    <path
       d="m 194.81,90.64 v 15.94"
       stroke="rgba(0,0,0,0.3)"
       id="path1259" />
    <path
       d="m 499,90.64 v 15.94"
       stroke="rgba(0,0,0,0.3)"
       id="path1261" />
  </g>
  <text
     y="122.00549"
     x="8.0218544"
     font-family="sans-serif"
     font-size="13px"
     text-anchor="start"
     fill="#555555"
     id="text1264"
     style="font-style:normal;font-variant:normal;font-weight:normal;font-stretch:normal;font-size:13.3333px;font-family:sans-serif;-inkscape-font-specification:'sans-serif, Normal';font-variant-ligatures:normal;font-variant-caps:normal;font-variant-numeric:normal;font-variant-east-asian:normal;text-anchor:start;fill:#555555"><tspan
       sodipodi:role="line"
       id="tspan1382"
       x="8.0218544"
       y="122.00549">0%</tspan></text>
  <text
     y="122.00548"
     x="104.50701"
     font-family="sans-serif"
     font-size="13px"
     text-anchor="middle"
     fill="#555555"
     id="text1266"
     style="font-style:normal;font-variant:normal;font-weight:normal;font-stretch:normal;font-size:13.3333px;font-family:sans-serif;-inkscape-font-specification:'sans-serif, Normal';font-variant-ligatures:normal;font-variant-caps:normal;font-variant-numeric:normal;font-variant-east-asian:normal;text-anchor:middle;fill:#555555"><tspan
       sodipodi:role="line"
       id="tspan1386"
       x="104.50701"
       y="122.00548">14%</tspan></text>
  <text
     y="122.00548"
     x="146.75034"
     font-family="sans-serif"
     font-size="13px"
     text-anchor="middle"
     fill="#555555"
     id="text1270"
     style="font-style:normal;font-variant:normal;font-weight:normal;font-stretch:normal;font-size:13.3333px;font-family:sans-serif;-inkscape-font-specification:'sans-serif, Normal';font-variant-ligatures:normal;font-variant-caps:normal;font-variant-numeric:normal;font-variant-east-asian:normal;text-anchor:middle;fill:#555555"><tspan
       sodipodi:role="line"
       id="tspan1388"
       x="146.75034"
       y="122.00548">20%</tspan></text>
  <text
     y="122.81454"
     x="213.96706"
     font-family="sans-serif"
     font-size="13px"
     text-anchor="middle"
     fill="#555555"
     id="text1274"
     style="font-style:normal;font-variant:normal;font-weight:normal;font-stretch:normal;font-size:13.3333px;font-family:sans-serif;-inkscape-font-specification:'sans-serif, Normal';font-variant-ligatures:normal;font-variant-caps:normal;font-variant-numeric:normal;font-variant-east-asian:normal;text-anchor:middle;fill:#555555"><tspan
       sodipodi:role="line"
       id="tspan1392"
       x="213.96706"
       y="122.81454">30%</tspan></text>
  <text
     y="139.9052"
     x="531.76343"
     font-family="sans-serif"
     font-size="13px"
     text-anchor="end"
     fill="#555555"
     id="text1276-1"
     style="font-style:normal;font-variant:normal;font-weight:normal;font-stretch:normal;font-size:10.6667px;font-family:sans-serif;-inkscape-font-specification:'sans-serif, Normal';font-variant-ligatures:normal;font-variant-caps:normal;font-variant-numeric:normal;font-variant-east-asian:normal;text-anchor:end;fill:#555555"><tspan
       sodipodi:role="line"
       id="tspan1450"
       x="531.76343"
       y="139.9052">Falls Church City, VA</tspan></text>
  <text
     y="138.8562"
     x="102.25031"
     font-family="sans-serif"
     font-size="13px"
     text-anchor="end"
     fill="#555555"
     id="text1276-1-1"
     style="font-style:normal;font-variant:normal;font-weight:normal;font-stretch:normal;font-size:10.6667px;font-family:sans-serif;-inkscape-font-specification:'sans-serif, Normal';font-variant-ligatures:normal;font-variant-caps:normal;font-variant-numeric:normal;font-variant-east-asian:normal;text-anchor:end;fill:#555555"><tspan
       sodipodi:role="line"
       id="tspan1448"
       x="102.25031"
       y="138.8562">Loving County, TX</tspan></text>
</svg>
